<svg xmlns="http://www.w3.org/2000/svg" viewBox="0 0 587.6 88.34">
    <defs>
        <style>
            .cls-1{fill:#ae64dd}
        </style>
    </defs>
    <g id="Layer_2" data-name="Layer 2">
        <g id="Layer_1-2" data-name="Layer 1">
            <path d="M41.46 88.34q-18.34 0-29.9-11.94T0 45.27Q0 25 11.74 12.51T42.83 0q18.29 0 29.58 12T83.7 43.55Q83.7 63.68 72 76T41.46 88.34Zm.83-71.78q-10.12 0-16.08 7.6t-6 20.1q0 12.69 6 20.08a19.09 19.09 0 0 0 15.61 7.38q9.95 0 15.78-7.18t5.84-19.92q0-13.29-5.66-20.67t-15.49-7.39ZM140.94 88.34h-34.82a8.24 8.24 0 0 1-8.25-8.24V12.54a9.62 9.62 0 0 1 9.62-9.62 9.63 9.63 0 0 1 9.63 9.62v60.2h23.82a7.81 7.81 0 0 1 7.81 7.8 7.81 7.81 0 0 1-7.81 7.8ZM179.49 88.34h-19.25v-75.8a9.62 9.62 0 0 1 9.62-9.62 9.63 9.63 0 0 1 9.63 9.62ZM270 2.92l-29.4 85.42h-21.8L189.73 2.92h20.73l17.81 59.45a42.3 42.3 0 0 1 1.73 8.52h.36a47.86 47.86 0 0 1 1.85-8.76l11.92-39.92A27 27 0 0 1 270 2.92ZM323.71 88.34h-43.43V2.92h41.46a7.8 7.8 0 0 1 7.8 7.8v.06a7.81 7.81 0 0 1-7.8 7.81h-22.22v19h20.13a7.81 7.81 0 0 1 7.81 7.8 7.81 7.81 0 0 1-7.81 7.81h-20.13v19.54h24.19a7.8 7.8 0 0 1 7.8 7.8 7.8 7.8 0 0 1-7.8 7.8Z"/>
            <path class="cls-1" d="M398.11 58.92v19.8a9.62 9.62 0 0 1-9.62 9.62 9.61 9.61 0 0 1-9.62-9.62V2.92H409q32.28 0 32.29 27.22Q441.3 43 432 51t-24.75 8Zm0-41.23v26.63h7.56q15.33 0 15.33-13.46 0-13.17-15.37-13.17ZM587.6 2.92 559.78 58v30.34h-19.24v-30l-27.1-55.4a33.43 33.43 0 0 1 30.69 20.16l5 11.69c.24.59.89 2.92 2 7h.24a30.93 30.93 0 0 1 1.86-6.79l5.86-13.44A31.1 31.1 0 0 1 587.6 2.92Z"/>
            <path d="M475.76 13.37a5.24 5.24 0 0 1 9.08 0L505.42 49l18.16 31.45a5.24 5.24 0 0 1-6.22 7.58L482 76a5.28 5.28 0 0 0-3.38 0l-35.36 12a5.24 5.24 0 0 1-6.26-7.53L455.18 49Z" style="fill:#dcc3eb"/>
        </g>
    </g>
</svg>
